<svg width="308" height="233" viewBox="0 0 308 233" fill="none" xmlns="http://www.w3.org/2000/svg">
<rect width="308" height="233" fill="white"/>
<g filter="url(#filter0_d)">
<path d="M127.88 96.768V168H107.24V163.68C104.104 167.2 99.304 168.96 92.84 168.96C88.232 168.96 83.976 167.872 80.072 165.696C76.232 163.456 73.16 160.256 70.856 156.096C68.616 151.936 67.496 147.136 67.496 141.696C67.496 136.256 68.616 131.488 70.856 127.392C73.16 123.232 76.232 120.064 80.072 117.888C83.976 115.648 88.232 114.528 92.84 114.528C98.664 114.528 103.112 116.032 106.184 119.04V96.768H127.88ZM98.024 152.064C100.52 152.064 102.568 151.168 104.168 149.376C105.768 147.52 106.568 144.96 106.568 141.696C106.568 138.432 105.768 135.904 104.168 134.112C102.568 132.32 100.52 131.424 98.024 131.424C95.528 131.424 93.48 132.32 91.88 134.112C90.28 135.904 89.48 138.432 89.48 141.696C89.48 144.96 90.28 147.52 91.88 149.376C93.48 151.168 95.528 152.064 98.024 152.064ZM195.904 170.304C185.248 170.304 175.648 168.096 167.103 163.68C158.559 159.168 151.839 152.928 146.943 144.96C142.143 136.896 139.743 127.776 139.743 117.6C139.743 107.424 142.143 98.352 146.943 90.384C151.839 82.32 158.559 76.08 167.103 71.664C175.648 67.152 185.248 64.896 195.904 64.896C205.696 64.896 214.432 66.624 222.111 70.08C229.792 73.536 236.128 78.528 241.12 85.056L219.664 104.208C213.424 96.336 206.08 92.4 197.632 92.4C190.528 92.4 184.815 94.704 180.495 99.312C176.175 103.824 174.016 109.92 174.016 117.6C174.016 125.28 176.175 131.424 180.495 136.032C184.815 140.544 190.528 142.8 197.632 142.8C206.08 142.8 213.424 138.864 219.664 130.992L241.12 150.144C236.128 156.672 229.792 161.664 222.111 165.12C214.432 168.576 205.696 170.304 195.904 170.304Z" fill="url(#paint0_linear)"/>
</g>
<defs>
<filter id="filter0_d" x="63.496" y="64.896" width="181.624" height="113.408" filterUnits="userSpaceOnUse" color-interpolation-filters="sRGB">
<feFlood flood-opacity="0" result="BackgroundImageFix"/>
<feColorMatrix in="SourceAlpha" type="matrix" values="0 0 0 0 0 0 0 0 0 0 0 0 0 0 0 0 0 0 127 0" result="hardAlpha"/>
<feOffset dy="4"/>
<feGaussianBlur stdDeviation="2"/>
<feComposite in2="hardAlpha" operator="out"/>
<feColorMatrix type="matrix" values="0 0 0 0 0 0 0 0 0 0 0 0 0 0 0 0 0 0 0.25 0"/>
<feBlend mode="normal" in2="BackgroundImageFix" result="effect1_dropShadow"/>
<feBlend mode="normal" in="SourceGraphic" in2="effect1_dropShadow" result="shape"/>
</filter>
<linearGradient id="paint0_linear" x1="81.9524" y1="168.203" x2="248.167" y2="64.6309" gradientUnits="userSpaceOnUse">
<stop stop-color="#079AFF"/>
<stop offset="0.178685" stop-color="#219EF4"/>
<stop offset="0.293939" stop-color="#6BC2FE"/>
<stop offset="0.418696" stop-color="#27A7FF"/>
<stop offset="0.604984" stop-color="#6DC4FF"/>
<stop offset="0.730869" stop-color="#0599FF"/>
<stop offset="1" stop-color="#2787CA"/>
</linearGradient>
</defs>
</svg>
